<svg width="45" height="45" viewBox="0 0 45 45" fill="none" xmlns="http://www.w3.org/2000/svg">
<path d="M35 0H10C4.47715 0 0 4.47715 0 10V35C0 40.5228 4.47715 45 10 45H35C40.5228 45 45 40.5228 45 35V10C45 4.47715 40.5228 0 35 0Z" fill="#5A31FC"/>
<path fill-rule="evenodd" clip-rule="evenodd" d="M11.677 20.4147C11.677 15.5839 15.594 11.6677 20.424 11.6677C25.255 11.6677 29.171 15.5839 29.171 20.4147C29.171 25.2456 25.255 29.1617 20.424 29.1617C15.594 29.1617 11.677 25.2456 11.677 20.4147ZM26.886 15.8617C25.408 13.7566 22.997 12.5028 20.424 12.5007C16.698 12.5061 13.479 15.1068 12.69 18.7487H14.235C14.445 17.938 15.225 17.4097 16.056 17.5156C16.886 17.6214 17.509 18.3283 17.508 19.1657C17.507 19.4622 17.425 19.7528 17.272 20.0067L19.166 21.9007C19.683 21.5857 20.332 21.5857 20.848 21.9007L23.575 19.1737C23.422 18.9198 23.341 18.6292 23.339 18.3327C23.339 17.4126 24.085 16.6667 25.005 16.6667C25.302 16.6686 25.592 16.7505 25.845 16.9037L26.886 15.8617ZM25.839 18.3317C25.839 18.7918 25.466 19.1647 25.006 19.1647C24.546 19.1647 24.173 18.7918 24.173 18.3317C24.173 17.8717 24.546 17.4987 25.006 17.4987C25.466 17.4993 25.838 17.8721 25.838 18.3317H25.839ZM20.006 24.1647C20.466 24.1647 20.839 23.7918 20.839 23.3317L20.84 23.3297C20.839 22.8701 20.466 22.4982 20.006 22.4987C19.546 22.4987 19.173 22.8717 19.173 23.3317C19.173 23.7918 19.546 24.1647 20.006 24.1647ZM16.675 19.1617C16.675 19.6218 16.302 19.9947 15.842 19.9947C15.382 19.9947 15.009 19.6218 15.009 19.1617C15.009 18.7017 15.382 18.3287 15.842 18.3287C16.302 18.3287 16.675 18.7017 16.675 19.1617ZM16.058 27.0153C18.522 28.645 21.688 28.7667 24.269 27.3307V27.3337C28.087 25.2137 29.463 20.4004 27.343 16.5827L26.435 17.4907C26.588 17.7446 26.67 18.0352 26.671 18.3317C26.671 19.2518 25.925 19.9977 25.005 19.9977C24.709 19.9963 24.418 19.9148 24.164 19.7617L21.437 22.4897C21.59 22.7436 21.672 23.0342 21.673 23.3307C21.673 24.2508 20.927 24.9967 20.007 24.9967C19.087 24.9967 18.341 24.2508 18.341 23.3307C18.343 23.0342 18.424 22.7436 18.577 22.4897L16.683 20.5957C16.429 20.7488 16.139 20.8303 15.842 20.8317C15.085 20.8289 14.425 20.3153 14.235 19.5817H12.555C12.244 22.5191 13.594 25.3856 16.058 27.0153Z" fill="white"/>
<path fill-rule="evenodd" clip-rule="evenodd" d="M30.836 14.1667C31.593 14.1642 32.253 13.6521 32.443 12.9197H35.001V12.0837H32.443C32.234 11.273 31.454 10.7447 30.623 10.8505C29.792 10.9563 29.17 11.6633 29.17 12.5007C29.172 12.7972 29.253 13.0878 29.406 13.3417L28.674 14.0737C25.239 9.5972 18.862 8.6719 14.296 11.9872C9.72998 15.3025 8.63499 21.6518 11.828 26.3048C15.02 30.9578 21.338 32.2212 26.074 29.1537L27.331 30.4107L27.92 30.9997L31.273 34.3527C31.821 34.9232 32.634 35.153 33.4 34.9535C34.165 34.754 34.763 34.1564 34.962 33.3911C35.162 32.6258 34.932 31.8124 34.361 31.2647L31.008 27.9117L30.419 27.3227L29.162 26.0657C31.393 22.6292 31.393 18.2022 29.162 14.7657L29.995 13.9327C30.249 14.085 30.54 14.1659 30.836 14.1667ZM30.836 11.6667C31.296 11.6678 31.668 12.041 31.667 12.5007C31.667 12.9603 31.294 13.3327 30.834 13.3327C30.375 13.3327 30.002 12.9603 30.001 12.5007C30.001 12.2794 30.089 12.0672 30.246 11.9109C30.403 11.7547 30.615 11.6671 30.836 11.6677V11.6667ZM33.773 33.7418C34.286 33.2166 34.286 32.3775 33.772 31.8527L30.419 28.4997L28.509 30.4097L31.862 33.7627L31.884 33.7847C32.421 34.2861 33.26 34.2671 33.773 33.7418ZM29.831 27.9117L27.921 29.8197L26.768 28.6667C26.801 28.6414 26.833 28.6145 26.865 28.5877C26.89 28.5668 26.915 28.5458 26.94 28.5257C26.998 28.4797 27.065 28.4257 27.127 28.3717C27.218 28.2947 27.308 28.2177 27.396 28.1377L27.529 28.0127C27.7 27.8527 27.867 27.686 28.029 27.5127L28.154 27.3797C28.234 27.2917 28.311 27.2017 28.388 27.1107C28.44 27.0493 28.492 26.987 28.542 26.9237C28.559 26.9033 28.576 26.8831 28.594 26.863C28.625 26.8268 28.657 26.7906 28.682 26.7527L29.831 27.9117ZM27.807 26.5127C27.949 26.3397 28.085 26.1597 28.216 25.9767C31.118 21.9143 30.42 16.3053 26.611 13.0782C22.802 9.8511 17.154 10.0843 13.624 13.6145C10.094 17.1447 9.861 22.7922 13.088 26.6014C16.315 30.4107 21.924 31.1087 25.986 28.2067C26.17 28.0757 26.349 27.9407 26.522 27.7977C26.543 27.7803 26.563 27.7623 26.584 27.7443C26.613 27.7189 26.642 27.6933 26.671 27.6687C26.821 27.5387 26.965 27.407 27.103 27.2737C27.164 27.215 27.224 27.155 27.283 27.0937C27.419 26.9537 27.551 26.8097 27.678 26.6617L27.686 26.6533C27.726 26.607 27.768 26.5598 27.807 26.5127Z" fill="white"/>
</svg>
